<mxfile host="app.diagrams.net" agent="Mozilla/5.0 (Macintosh; Intel Mac OS X 10_15_7) AppleWebKit/537.36 (KHTML, like Gecko) Chrome/130.0.0.0 Safari/537.36" version="24.8.3">
  <diagram name="Page-1" id="bXnuZXWvN6B_vQ7cFQM5">
    <mxGraphModel dx="3212" dy="1453" grid="1" gridSize="10" guides="1" tooltips="1" connect="1" arrows="1" fold="1" page="1" pageScale="1" pageWidth="827" pageHeight="1169" background="#ffffff" math="0" shadow="0">
      <root>
        <mxCell id="0" />
        <mxCell id="1" parent="0" />
        <mxCell id="V9HJVicfxcj-Xi3RmbWV-10" value="&lt;font style=&quot;font-size: 30px;&quot;&gt;rst_n&lt;/font&gt;" style="text;html=1;align=center;verticalAlign=middle;resizable=0;points=[];autosize=1;strokeColor=none;fillColor=none;" parent="1" vertex="1">
          <mxGeometry x="-504" y="190" width="90" height="50" as="geometry" />
        </mxCell>
        <mxCell id="V9HJVicfxcj-Xi3RmbWV-12" value="&lt;font style=&quot;font-size: 30px;&quot;&gt;clk&lt;/font&gt;" style="text;html=1;align=center;verticalAlign=middle;resizable=0;points=[];autosize=1;strokeColor=none;fillColor=none;rotation=0;" parent="1" vertex="1">
          <mxGeometry x="-499" y="270" width="60" height="50" as="geometry" />
        </mxCell>
        <mxCell id="V9HJVicfxcj-Xi3RmbWV-14" value="&lt;font style=&quot;font-size: 30px;&quot;&gt;Sync&lt;/font&gt;" style="text;html=1;align=center;verticalAlign=middle;resizable=0;points=[];autosize=1;strokeColor=none;fillColor=none;" parent="1" vertex="1">
          <mxGeometry x="-514" y="430" width="90" height="50" as="geometry" />
        </mxCell>
        <mxCell id="V9HJVicfxcj-Xi3RmbWV-16" value="&lt;font style=&quot;font-size: 30px;&quot;&gt;f_sync&lt;/font&gt;" style="text;html=1;align=center;verticalAlign=middle;resizable=0;points=[];autosize=1;strokeColor=none;fillColor=none;" parent="1" vertex="1">
          <mxGeometry x="-514" y="340" width="110" height="50" as="geometry" />
        </mxCell>
        <mxCell id="V9HJVicfxcj-Xi3RmbWV-18" value="&lt;font style=&quot;font-size: 30px;&quot;&gt;[2:0]Mode&lt;/font&gt;" style="text;html=1;align=center;verticalAlign=middle;resizable=0;points=[];autosize=1;strokeColor=none;fillColor=none;" parent="1" vertex="1">
          <mxGeometry x="-549" y="510" width="160" height="50" as="geometry" />
        </mxCell>
        <mxCell id="V9HJVicfxcj-Xi3RmbWV-20" value="&lt;font style=&quot;font-size: 30px;&quot;&gt;[1:0]X&lt;/font&gt;" style="text;html=1;align=center;verticalAlign=middle;resizable=0;points=[];autosize=1;strokeColor=none;fillColor=none;" parent="1" vertex="1">
          <mxGeometry x="-529" y="585" width="100" height="50" as="geometry" />
        </mxCell>
        <mxCell id="V9HJVicfxcj-Xi3RmbWV-38" value="&lt;font style=&quot;font-size: 30px;&quot;&gt;[1:0]Y&lt;/font&gt;" style="text;html=1;align=center;verticalAlign=middle;resizable=0;points=[];autosize=1;strokeColor=none;fillColor=none;" parent="1" vertex="1">
          <mxGeometry x="-529" y="670" width="100" height="50" as="geometry" />
        </mxCell>
        <mxCell id="grZ6hcHH2rHkp3h9Grfc-10" value="" style="endArrow=classic;html=1;rounded=0;strokeWidth=4;" parent="1" edge="1">
          <mxGeometry width="50" height="50" relative="1" as="geometry">
            <mxPoint x="-546" y="800" as="sourcePoint" />
            <mxPoint x="-276" y="800" as="targetPoint" />
          </mxGeometry>
        </mxCell>
        <mxCell id="grZ6hcHH2rHkp3h9Grfc-12" value="&lt;font style=&quot;font-size: 30px;&quot;&gt;[11:0]constVal&lt;/font&gt;" style="text;html=1;align=center;verticalAlign=middle;resizable=0;points=[];autosize=1;strokeColor=none;fillColor=none;" parent="1" vertex="1">
          <mxGeometry x="-564" y="750" width="210" height="50" as="geometry" />
        </mxCell>
        <mxCell id="grZ6hcHH2rHkp3h9Grfc-35" value="" style="endArrow=classic;html=1;rounded=0;strokeWidth=4;" parent="1" edge="1">
          <mxGeometry width="50" height="50" relative="1" as="geometry">
            <mxPoint x="642" y="520" as="sourcePoint" />
            <mxPoint x="920" y="520" as="targetPoint" />
          </mxGeometry>
        </mxCell>
        <mxCell id="grZ6hcHH2rHkp3h9Grfc-36" value="&lt;font style=&quot;font-size: 30px;&quot;&gt;[11:0]Cnt&lt;/font&gt;" style="text;html=1;align=center;verticalAlign=middle;resizable=0;points=[];autosize=1;strokeColor=none;fillColor=none;" parent="1" vertex="1">
          <mxGeometry x="709.9999999999999" y="460" width="140" height="50" as="geometry" />
        </mxCell>
        <mxCell id="9O615eeIOiEBiYoucSlX-13" value="" style="swimlane;startSize=0;strokeWidth=4;" parent="1" vertex="1">
          <mxGeometry x="-273" y="160" width="913" height="720" as="geometry" />
        </mxCell>
        <mxCell id="9O615eeIOiEBiYoucSlX-14" value="&lt;font style=&quot;font-size: 80px;&quot;&gt;&lt;b&gt;Pattern Generator&lt;/b&gt;&lt;/font&gt;" style="text;html=1;align=center;verticalAlign=middle;whiteSpace=wrap;rounded=0;" parent="9O615eeIOiEBiYoucSlX-13" vertex="1">
          <mxGeometry x="23" y="225" width="850" height="280" as="geometry" />
        </mxCell>
        <mxCell id="RC9ZujHIaYgehxU97NYA-1" value="" style="endArrow=classic;html=1;rounded=0;strokeWidth=4;" parent="1" edge="1">
          <mxGeometry width="50" height="50" relative="1" as="geometry">
            <mxPoint x="-548" y="720" as="sourcePoint" />
            <mxPoint x="-278" y="720" as="targetPoint" />
          </mxGeometry>
        </mxCell>
        <mxCell id="RC9ZujHIaYgehxU97NYA-2" value="" style="endArrow=classic;html=1;rounded=0;strokeWidth=4;" parent="1" edge="1">
          <mxGeometry width="50" height="50" relative="1" as="geometry">
            <mxPoint x="-549" y="640" as="sourcePoint" />
            <mxPoint x="-279" y="640" as="targetPoint" />
          </mxGeometry>
        </mxCell>
        <mxCell id="RC9ZujHIaYgehxU97NYA-3" value="" style="endArrow=classic;html=1;rounded=0;strokeWidth=4;" parent="1" edge="1">
          <mxGeometry width="50" height="50" relative="1" as="geometry">
            <mxPoint x="-544" y="560" as="sourcePoint" />
            <mxPoint x="-274" y="560" as="targetPoint" />
          </mxGeometry>
        </mxCell>
        <mxCell id="RC9ZujHIaYgehxU97NYA-4" value="" style="endArrow=classic;html=1;rounded=0;strokeWidth=4;" parent="1" edge="1">
          <mxGeometry width="50" height="50" relative="1" as="geometry">
            <mxPoint x="-544" y="480" as="sourcePoint" />
            <mxPoint x="-274" y="480" as="targetPoint" />
          </mxGeometry>
        </mxCell>
        <mxCell id="RC9ZujHIaYgehxU97NYA-5" value="" style="endArrow=classic;html=1;rounded=0;strokeWidth=4;" parent="1" edge="1">
          <mxGeometry width="50" height="50" relative="1" as="geometry">
            <mxPoint x="-540" y="400" as="sourcePoint" />
            <mxPoint x="-270" y="400" as="targetPoint" />
          </mxGeometry>
        </mxCell>
        <mxCell id="RC9ZujHIaYgehxU97NYA-6" value="" style="endArrow=classic;html=1;rounded=0;strokeWidth=4;" parent="1" edge="1">
          <mxGeometry width="50" height="50" relative="1" as="geometry">
            <mxPoint x="-546" y="240" as="sourcePoint" />
            <mxPoint x="-276" y="240" as="targetPoint" />
          </mxGeometry>
        </mxCell>
        <mxCell id="RC9ZujHIaYgehxU97NYA-7" value="" style="endArrow=classic;html=1;rounded=0;strokeWidth=4;" parent="1" edge="1">
          <mxGeometry width="50" height="50" relative="1" as="geometry">
            <mxPoint x="-540" y="320" as="sourcePoint" />
            <mxPoint x="-270" y="320" as="targetPoint" />
          </mxGeometry>
        </mxCell>
      </root>
    </mxGraphModel>
  </diagram>
</mxfile>
